<svg width="230" height="105" viewBox="0 0 230 105" fill="none" xmlns="http://www.w3.org/2000/svg">
<path d="M41.22 26.675C22.32 26.675 8.775 39.485 8.775 58.07V103.955H26.31V81.59C31.035 85.265 37.125 87.26 43.53 87.26C60.54 87.26 73.77 75.185 73.77 57.44C73.77 39.485 60.12 26.675 41.22 26.675ZM41.22 72.455C32.505 72.455 26.31 66.365 26.31 57.125C26.31 47.78 32.61 41.585 41.325 41.585C50.04 41.585 56.235 47.78 56.235 57.02C56.235 66.365 49.935 72.455 41.22 72.455ZM92.0507 23.315C97.4057 23.315 101.291 19.325 101.291 14.285C101.291 9.13999 97.4057 5.15 92.0507 5.15C86.8007 5.15 82.8107 9.13999 82.8107 14.285C82.8107 19.325 86.8007 23.315 92.0507 23.315ZM100.766 86V27.935H83.4407V86H100.766ZM150.122 69.83C148.022 71.09 145.187 72.455 141.302 72.455C138.152 72.455 134.897 70.985 134.897 63.635V42.215H153.377V27.935H108.332V42.215H117.572V63.425C117.572 80.54 126.182 87.26 138.362 87.26C145.817 87.26 151.592 85.265 156.002 81.8L150.122 69.83ZM191.176 26.675C172.276 26.675 158.731 39.485 158.731 57.44C158.731 75.185 171.856 87.26 188.866 87.26C196.426 87.26 202.936 84.53 207.451 79.7L207.766 86H223.621V58.07C223.621 39.485 210.076 26.675 191.176 26.675ZM191.176 72.455C182.461 72.455 176.161 66.365 176.161 57.02C176.161 47.78 182.356 41.585 191.071 41.585C199.891 41.585 206.086 47.78 206.086 57.125C206.086 66.365 199.891 72.455 191.176 72.455Z" fill="#BB9568"/>
<path d="M38.22 26.675C19.32 26.675 5.775 39.485 5.775 58.07V103.955H23.31V81.59C28.035 85.265 34.125 87.26 40.53 87.26C57.54 87.26 70.77 75.185 70.77 57.44C70.77 39.485 57.12 26.675 38.22 26.675ZM38.22 72.455C29.505 72.455 23.31 66.365 23.31 57.125C23.31 47.78 29.61 41.585 38.325 41.585C47.04 41.585 53.235 47.78 53.235 57.02C53.235 66.365 46.935 72.455 38.22 72.455ZM89.0507 23.315C94.4057 23.315 98.2907 19.325 98.2907 14.285C98.2907 9.13999 94.4057 5.15 89.0507 5.15C83.8007 5.15 79.8107 9.13999 79.8107 14.285C79.8107 19.325 83.8007 23.315 89.0507 23.315ZM97.7657 86V27.935H80.4407V86H97.7657ZM147.122 69.83C145.022 71.09 142.187 72.455 138.302 72.455C135.152 72.455 131.897 70.985 131.897 63.635V42.215H150.377V27.935H105.332V42.215H114.572V63.425C114.572 80.54 123.182 87.26 135.362 87.26C142.817 87.26 148.592 85.265 153.002 81.8L147.122 69.83ZM188.176 26.675C169.276 26.675 155.731 39.485 155.731 57.44C155.731 75.185 168.856 87.26 185.866 87.26C193.426 87.26 199.936 84.53 204.451 79.7L204.766 86H220.621V58.07C220.621 39.485 207.076 26.675 188.176 26.675ZM188.176 72.455C179.461 72.455 173.161 66.365 173.161 57.02C173.161 47.78 179.356 41.585 188.071 41.585C196.891 41.585 203.086 47.78 203.086 57.125C203.086 66.365 196.891 72.455 188.176 72.455Z" fill="black"/>
</svg>
