<svg width="47" height="13" viewBox="0 0 47 13" fill="none" xmlns="http://www.w3.org/2000/svg">
<path d="M11.984 0.639999C10.496 0.639999 9.28 1.232 8.48 2.32C7.728 1.248 6.576 0.639999 5.168 0.639999C2.688 0.639999 0.96 2.48 0.96 5.392V12H3.04V5.392C3.04 3.616 3.968 2.688 5.296 2.688C6.608 2.688 7.536 3.648 7.536 5.424V12H9.616V5.392C9.616 3.616 10.56 2.688 11.872 2.688C13.184 2.688 14.144 3.616 14.144 5.392V12H16.208V5.392C16.208 2.48 14.448 0.639999 11.984 0.639999ZM22.5479 10.384C21.1879 10.384 20.0999 9.648 19.8279 8.288H23.9719V6.656H19.8919C20.2439 5.488 21.2679 4.848 22.4839 4.848C23.3159 4.848 23.9879 5.072 24.6119 5.76L26.0039 4.576C25.1079 3.552 23.8439 3.056 22.5159 3.056C19.8439 3.056 17.7639 4.944 17.7639 7.632C17.7639 10.304 19.8439 12.176 22.5159 12.176C23.8599 12.176 25.1239 11.68 26.0039 10.672L24.6119 9.488C23.9879 10.192 23.3319 10.384 22.5479 10.384ZM29.2744 7.36C29.2744 5.888 30.2184 4.864 31.5624 4.864C32.9224 4.864 33.8664 5.888 33.8664 7.36V12H35.8504V7.648C35.8504 4.944 34.0904 3.056 31.5624 3.056C29.0504 3.056 27.2904 4.944 27.2904 7.648V12H29.2744V7.36ZM44.5383 7.888C44.5383 9.36 43.5943 10.384 42.2503 10.384C40.8903 10.384 39.9463 9.36 39.9463 7.888V3.248H37.9622V7.6C37.9622 10.304 39.7223 12.192 42.2503 12.192C44.7623 12.192 46.5223 10.304 46.5223 7.6V3.248H44.5383V7.888Z" fill="#2F2B27"/>
</svg>
